<svg width="52" height="52" viewBox="0 0 52 52" fill="none" xmlns="http://www.w3.org/2000/svg">
<path d="M46.475 3.81971V48.1803C46.475 49.4473 45.4479 50.4744 44.1809 50.4744H7.81912C6.55211 50.4744 5.525 49.4473 5.525 48.1803V10.7326H12.4456C13.7126 10.7326 14.7397 9.70552 14.7397 8.43851V1.52559H44.1809C45.4479 1.52559 46.475 2.5527 46.475 3.81971Z" fill="#E9EDF4"/>
<path d="M5.525 10.7326H12.4456C13.7126 10.7326 14.7397 9.70552 14.7397 8.43851V1.52559L5.525 10.7326Z" fill="#D2DBEA"/>
<path d="M12 24.7332L12 44.2668C12 44.6717 12.3283 45 12.7332 45L39.1299 45C39.5348 45 39.8631 44.6717 39.8631 44.2668L39.8631 24.7332C39.8631 24.3283 39.5348 24 39.1299 24L12.7332 24C12.3283 24 12 24.3283 12 24.7332Z" fill="#8DD1FE"/>
<path d="M12 44.9992L12 40.4458L16.3701 35.1591C17.6239 33.6633 19.9337 33.6633 21.1655 35.1811L24.0031 38.6493L29.2017 44.9992L12 44.9992Z" fill="#78D119"/>
<path d="M18.597 44.9992L23.8575 38.6477L28.8013 32.6811C30.0514 31.1657 32.3433 31.1846 33.5934 32.7001L39.8631 40.3714L39.8631 44.9992L18.597 44.9992Z" fill="#9CE843"/>
<path d="M20.6282 29.3516C20.6282 31.15 22.0963 32.6181 23.8948 32.6181C25.7115 32.6181 27.1612 31.15 27.1612 29.3516C27.1612 27.5349 25.7115 26.0851 23.8948 26.0851C22.0963 26.0851 20.6282 27.5349 20.6282 29.3516Z" fill="#FFC90D"/>
</svg>
