<svg width="52" height="52" viewBox="0 0 52 52" fill="none" xmlns="http://www.w3.org/2000/svg">
<path d="M43.4162 4.29412V48.6547C43.4162 49.9217 42.3891 50.9488 41.1221 50.9488H4.7603C3.4933 50.9488 2.46619 49.9217 2.46619 48.6547V11.207H9.38677C10.6538 11.207 11.6809 10.1799 11.6809 8.91292V2H41.1221C42.3891 2 43.4162 3.02711 43.4162 4.29412Z" fill="#E9EDF4"/>
<path d="M2.46619 11.207H9.38677C10.6538 11.207 11.6809 10.1799 11.6809 8.91292V2L2.46619 11.207Z" fill="#D2DBEA"/>
<path d="M45.8824 30.4417V41.0864C45.8824 42.3534 44.8552 43.3805 43.5882 43.3805H2.29412C1.02711 43.3805 0 42.3534 0 41.0864V30.4417C0 29.1747 1.02711 28.1475 2.29412 28.1475H43.5882C44.8552 28.1475 45.8824 29.1747 45.8824 30.4417Z" fill="#F14F4A"/>
<path d="M37.1133 17.6779C37.1133 18.2267 36.6757 18.6643 36.1269 18.6643H9.75545C9.21405 18.6643 8.7691 18.2267 8.7691 17.6779C8.7691 17.1292 9.21405 16.6916 9.75545 16.6916H36.1269C36.6757 16.6916 37.1133 17.1292 37.1133 17.6779Z" fill="#D2DBEA"/>
<path d="M37.1133 22.7329C37.1133 23.2817 36.6757 23.7193 36.1269 23.7193H9.75545C9.21405 23.7193 8.7691 23.2817 8.7691 22.7329C8.7691 22.1842 9.21405 21.7466 9.75545 21.7466H36.1269C36.6757 21.7466 37.1133 22.1842 37.1133 22.7329Z" fill="#D2DBEA"/>
<path d="M13.2128 39.403C13.1194 39.3101 13.0731 39.1954 13.0731 39.0591V32.4837C13.0731 32.3478 13.1194 32.2313 13.2128 32.1346C13.3054 32.0379 13.4204 31.9897 13.5563 31.9897H16.0057C16.6861 31.9897 17.2417 32.1043 17.6711 32.3332C18.1012 32.5625 18.4089 32.8564 18.5956 33.2144C18.7815 33.5725 18.8749 33.9594 18.8749 34.3746C18.8749 34.7902 18.7815 35.177 18.5956 35.5351C18.4089 35.8935 18.1012 36.187 17.6711 36.4163C17.2417 36.6455 16.6861 36.7598 16.0057 36.7598H14.0507V39.0591C14.0507 39.1954 14.0021 39.3101 13.9058 39.403C13.8087 39.496 13.6922 39.5427 13.5563 39.5427C13.4204 39.5427 13.3054 39.496 13.2128 39.403ZM15.9094 35.836C16.6398 35.836 17.1535 35.6964 17.4508 35.4171C17.748 35.1374 17.8966 34.7902 17.8966 34.3746C17.8966 33.9594 17.748 33.6117 17.4508 33.3324C17.1535 33.0531 16.6398 32.9135 15.9094 32.9135H14.0507V35.836H15.9094Z" fill="white"/>
<path d="M13.5563 39.7339C13.3711 39.7339 13.2053 39.6663 13.0776 39.5382C12.9477 39.4086 12.882 39.2477 12.882 39.0591V32.4837C12.882 32.2966 12.9469 32.1346 13.0754 32.0017C13.2023 31.8691 13.3689 31.7985 13.5563 31.7985H16.0058C16.7152 31.7985 17.3052 31.9218 17.7607 32.1645C18.223 32.4109 18.5605 32.7343 18.7651 33.1259C18.9645 33.5105 19.0661 33.9306 19.0661 34.3746C19.0661 34.8185 18.9645 35.239 18.7651 35.6232C18.5612 36.0149 18.223 36.3386 17.7607 36.585C17.3059 36.8277 16.7159 36.951 16.0058 36.951H14.2418V39.0591C14.2418 39.2458 14.1717 39.4124 14.0387 39.5404C13.9043 39.6689 13.7423 39.7339 13.5563 39.7339ZM13.5563 32.1809C13.4719 32.1809 13.4069 32.2081 13.3509 32.2668C13.2919 32.328 13.2643 32.3971 13.2643 32.4837V39.0591C13.2643 39.1446 13.2904 39.2111 13.348 39.2675C13.463 39.3825 13.6511 39.3821 13.7736 39.2649C13.8319 39.2085 13.8595 39.1431 13.8595 39.0591V36.5686H16.0058C16.6525 36.5686 17.1819 36.4607 17.5807 36.2475C17.9743 36.038 18.258 35.7688 18.4261 35.4466C18.5971 35.1176 18.6837 34.7569 18.6837 34.3746C18.6837 33.9926 18.5971 33.6319 18.4261 33.3026C18.258 32.9807 17.9735 32.7111 17.5815 32.502C17.1812 32.2888 16.6517 32.1809 16.0058 32.1809H13.5563ZM15.9094 36.0272H13.8595V32.7223H15.9094C16.6973 32.7223 17.2447 32.8761 17.5815 33.1932C17.9175 33.5087 18.0878 33.9063 18.0878 34.3746C18.0878 34.8428 17.9175 35.2405 17.5815 35.5564C17.2447 35.8734 16.6973 36.0272 15.9094 36.0272ZM14.2418 35.6448H15.9094C16.586 35.6448 17.061 35.5213 17.3201 35.2778C17.5792 35.0336 17.7054 34.7382 17.7054 34.3746C17.7054 34.0109 17.5792 33.7155 17.3201 33.4717C17.061 33.2283 16.586 33.1047 15.9094 33.1047H14.2418V35.6448Z" fill="white"/>
<path d="M20.4327 39.3493C20.3393 39.2563 20.293 39.1417 20.293 39.0054V32.4837C20.293 32.3478 20.3393 32.2313 20.4327 32.1346C20.5253 32.0379 20.6403 31.9897 20.7762 31.9897H22.9359C23.7521 31.9897 24.4451 32.1704 25.0149 32.5323C25.584 32.8941 26.0119 33.3612 26.2987 33.9343C26.5847 34.5075 26.7281 35.109 26.7281 35.7393C26.7281 36.3696 26.5847 36.9711 26.2987 37.5443C26.0119 38.1174 25.584 38.5846 25.0149 38.9464C24.4451 39.3082 23.7521 39.4889 22.9359 39.4889H20.7762C20.6403 39.4889 20.5253 39.4422 20.4327 39.3493ZM22.8179 38.5756C23.4049 38.5756 23.9202 38.4557 24.3645 38.2156C24.8088 37.9759 25.1523 37.6429 25.3958 37.2165C25.6393 36.7904 25.7617 36.2979 25.7617 35.7393C25.7617 35.1807 25.6393 34.6882 25.3958 34.2618C25.1523 33.8358 24.8088 33.5027 24.3645 33.2626C23.9202 33.0229 23.4049 32.9027 22.8179 32.9027H21.2706V38.5756H22.8179Z" fill="white"/>
<path d="M22.9359 39.6801H20.7762C20.591 39.6801 20.4252 39.6125 20.2975 39.4844C20.1676 39.3549 20.1019 39.1939 20.1019 39.0054V32.4837C20.1019 32.2966 20.1668 32.1346 20.2953 32.0017C20.4222 31.8691 20.5888 31.7985 20.7762 31.7985H22.9359C23.7857 31.7985 24.5191 31.9912 25.1173 32.3709C25.7139 32.7499 26.1687 33.2473 26.4697 33.8488C26.7677 34.4466 26.9193 35.0825 26.9193 35.7393C26.9193 36.3961 26.7677 37.032 26.4697 37.6298C26.1687 38.2313 25.7139 38.7287 25.1173 39.1077C24.5191 39.4874 23.7857 39.6801 22.9359 39.6801ZM20.7762 32.1809C20.6918 32.1809 20.6269 32.2081 20.5708 32.2668C20.5119 32.328 20.4842 32.3971 20.4842 32.4837V39.0054C20.4842 39.0909 20.5104 39.157 20.5679 39.2137C20.6246 39.2705 20.6911 39.2977 20.7762 39.2977H22.9359C23.7118 39.2977 24.3765 39.1252 24.9126 38.7851C25.4496 38.4438 25.8581 37.9976 26.1277 37.4588C26.3995 36.9147 26.5369 36.336 26.5369 35.7393C26.5369 35.1426 26.3995 34.5639 26.1277 34.0198C25.8581 33.481 25.4496 33.0348 24.9126 32.6936C24.3765 32.3534 23.7118 32.1809 22.9359 32.1809H20.7762ZM22.8179 38.7668H21.0794V32.7115H22.8179C23.4333 32.7115 23.9844 32.8403 24.4556 33.0942C24.9291 33.3504 25.3017 33.7114 25.5616 34.167C25.8215 34.6214 25.9529 35.1505 25.9529 35.7393C25.9529 36.3282 25.8215 36.8572 25.5616 37.3113C25.3017 37.7672 24.9291 38.1283 24.4556 38.384C23.9851 38.638 23.434 38.7668 22.8179 38.7668ZM21.4618 38.3844H22.8179C23.3698 38.3844 23.8597 38.2709 24.2734 38.0476C24.6834 37.8262 25.0052 37.5148 25.23 37.1216C25.4556 36.7258 25.5706 36.2609 25.5706 35.7393C25.5706 35.2177 25.4556 34.7528 25.23 34.3566C25.0052 33.9638 24.6834 33.6524 24.2734 33.4306C23.8589 33.2073 23.369 33.0938 22.8179 33.0938H21.4618V38.3844Z" fill="white"/>
<path d="M28.5016 39.403C28.4083 39.3101 28.362 39.1954 28.362 39.0591V32.4837C28.362 32.3478 28.4083 32.2313 28.5016 32.1346C28.5942 32.0379 28.7093 31.9897 28.8452 31.9897H33.0249C33.1534 31.9897 33.2624 32.0345 33.352 32.1238C33.4416 32.2134 33.4864 32.3228 33.4864 32.4516C33.4864 32.5804 33.4416 32.688 33.352 32.7738C33.2624 32.8597 33.1534 32.9027 33.0249 32.9027H29.3395V35.2771H32.6485C32.7777 35.2771 32.8868 35.3222 32.9764 35.4115C33.066 35.5011 33.1108 35.6101 33.1108 35.7393C33.1108 35.8681 33.066 35.9757 32.9764 36.0616C32.8868 36.1474 32.7777 36.1904 32.6485 36.1904H29.3395V39.0591C29.3395 39.1954 29.291 39.3101 29.1947 39.403C29.0976 39.496 28.9811 39.5427 28.8452 39.5427C28.7093 39.5427 28.5942 39.496 28.5016 39.403Z" fill="white"/>
<path d="M28.8452 39.7339C28.66 39.7339 28.4942 39.6663 28.3665 39.5382C28.2366 39.4086 28.1708 39.2477 28.1708 39.0591V32.4837C28.1708 32.2966 28.2358 32.1346 28.3643 32.0017C28.4912 31.8691 28.6577 31.7985 28.8452 31.7985H33.0249C33.2049 31.7985 33.3602 31.8624 33.4872 31.9882C33.6119 32.1133 33.6776 32.2731 33.6776 32.4516C33.6776 32.6316 33.6104 32.7906 33.4842 32.912C33.358 33.0326 33.2034 33.0938 33.0249 33.0938H29.5307V35.0859H32.6485C32.8293 35.0859 32.9846 35.1497 33.1116 35.2759C33.2378 35.4025 33.302 35.5586 33.302 35.7393C33.302 35.9193 33.2348 36.0784 33.1086 36.1997C32.9824 36.3203 32.8278 36.3815 32.6485 36.3815H29.5307V39.0591C29.5307 39.2458 29.4605 39.4124 29.3276 39.5404C29.1932 39.6689 29.0311 39.7339 28.8452 39.7339ZM28.8452 32.1809C28.7608 32.1809 28.6958 32.2081 28.6398 32.2668C28.5808 32.328 28.5532 32.3971 28.5532 32.4837V39.0591C28.5532 39.1446 28.5793 39.2111 28.6368 39.2675C28.7518 39.3825 28.94 39.3821 29.0625 39.2649C29.1207 39.2085 29.1484 39.1431 29.1484 39.0591V35.9992H32.6485C32.7285 35.9992 32.7904 35.9753 32.8442 35.9234C32.8957 35.8741 32.9196 35.8155 32.9196 35.7393C32.9196 35.6613 32.895 35.6 32.8412 35.5466C32.7875 35.4932 32.7262 35.4682 32.6485 35.4682H29.1484V32.7115H33.0249C33.1041 32.7115 33.1661 32.6876 33.2198 32.6357C33.2714 32.5864 33.2953 32.5278 33.2953 32.4516C33.2953 32.3736 33.2706 32.3123 33.2169 32.2589C33.1631 32.2059 33.1026 32.1809 33.0249 32.1809H28.8452Z" fill="white"/>
</svg>
