<svg width="52" height="52" viewBox="0 0 52 52" fill="none" xmlns="http://www.w3.org/2000/svg">
<path d="M46.475 3.81969V48.1803C46.475 49.4473 45.4479 50.4744 44.1809 50.4744H7.81914C6.55214 50.4744 5.52502 49.4473 5.52502 48.1803V10.7326H12.4456C13.7126 10.7326 14.7397 9.7055 14.7397 8.4385V1.52557H44.1809C45.4479 1.52557 46.475 2.55269 46.475 3.81969Z" fill="#E9EDF4"/>
<path d="M5.52502 10.7326H12.4456C13.7126 10.7326 14.7397 9.7055 14.7397 8.4385V1.52557L5.52502 10.7326Z" fill="#D2DBEA"/>
<path d="M48.9412 29.9672V40.6119C48.9412 41.8789 47.9141 42.9061 46.6471 42.9061H5.35296C4.08595 42.9061 3.05884 41.8789 3.05884 40.6119V29.9672C3.05884 28.7002 4.08595 27.6731 5.35296 27.6731H46.6471C47.9141 27.6731 48.9412 28.7002 48.9412 29.9672Z" fill="#4ABFF1"/>
<path d="M34.119 40C33.895 40 33.711 39.932 33.567 39.796C33.423 39.652 33.351 39.476 33.351 39.268V32.308H34.911V39.268C34.911 39.476 34.835 39.652 34.683 39.796C34.539 39.932 34.351 40 34.119 40ZM31.467 32.98C31.259 32.98 31.083 32.916 30.939 32.788C30.803 32.66 30.735 32.492 30.735 32.284C30.735 32.076 30.803 31.912 30.939 31.792C31.083 31.664 31.259 31.6 31.467 31.6H36.795C37.003 31.6 37.175 31.664 37.311 31.792C37.455 31.92 37.527 32.088 37.527 32.296C37.527 32.504 37.455 32.672 37.311 32.8C37.175 32.92 37.003 32.98 36.795 32.98H31.467Z" fill="white"/>
<path d="M29.1597 31.588C29.3437 31.588 29.4997 31.66 29.6277 31.804C29.7637 31.948 29.8317 32.1 29.8317 32.26C29.8317 32.412 29.7797 32.556 29.6757 32.692L27.2637 35.872L26.4477 34.756L28.5717 31.936C28.7397 31.704 28.9357 31.588 29.1597 31.588ZM23.8077 31.564C24.0397 31.564 24.2357 31.668 24.3957 31.876L29.6757 38.896C29.7717 39.024 29.8197 39.172 29.8197 39.34C29.8197 39.564 29.7397 39.74 29.5797 39.868C29.4197 39.996 29.2597 40.06 29.0997 40.06C28.8677 40.06 28.6717 39.956 28.5117 39.748L23.2317 32.728C23.1277 32.6 23.0757 32.456 23.0757 32.296C23.0757 32.088 23.1517 31.916 23.3037 31.78C23.4637 31.636 23.6317 31.564 23.8077 31.564ZM23.6997 40.06C23.5237 40.06 23.3717 39.996 23.2437 39.868C23.1157 39.732 23.0517 39.584 23.0517 39.424C23.0517 39.248 23.1117 39.084 23.2317 38.932L25.6677 35.632L26.4597 36.796L24.2997 39.724C24.1397 39.948 23.9397 40.06 23.6997 40.06Z" fill="white"/>
<path d="M18.744 40C18.52 40 18.336 39.932 18.192 39.796C18.048 39.652 17.976 39.476 17.976 39.268V32.308H19.536V39.268C19.536 39.476 19.46 39.652 19.308 39.796C19.164 39.932 18.976 40 18.744 40ZM16.092 32.98C15.884 32.98 15.708 32.916 15.564 32.788C15.428 32.66 15.36 32.492 15.36 32.284C15.36 32.076 15.428 31.912 15.564 31.792C15.708 31.664 15.884 31.6 16.092 31.6H21.42C21.628 31.6 21.8 31.664 21.936 31.792C22.08 31.92 22.152 32.088 22.152 32.296C22.152 32.504 22.08 32.672 21.936 32.8C21.8 32.92 21.628 32.98 21.42 32.98H16.092Z" fill="white"/>
<path d="M40.1721 17.2035C40.1721 17.7523 39.7345 18.1899 39.1857 18.1899H12.8143C12.2729 18.1899 11.8279 17.7523 11.8279 17.2035C11.8279 16.6547 12.2729 16.2172 12.8143 16.2172H39.1857C39.7345 16.2172 40.1721 16.6547 40.1721 17.2035Z" fill="#D2DBEA"/>
<path d="M40.1721 22.2585C40.1721 22.8073 39.7345 23.2449 39.1857 23.2449H12.8143C12.2729 23.2449 11.8279 22.8073 11.8279 22.2585C11.8279 21.7098 12.2729 21.2722 12.8143 21.2722H39.1857C39.7345 21.2722 40.1721 21.7098 40.1721 22.2585Z" fill="#D2DBEA"/>
</svg>
